<svg xmlns="http://www.w3.org/2000/svg" xmlns:xlink="http://www.w3.org/1999/xlink" width="18" height="18" preserveAspectRatio="xMidYMid meet" version="1.1" viewBox="0 0 18 18"><defs><path id="e5SCyvaqZI" d="M0 0C0 0 0 0 0 0C0 10.8 0 16.8 0 18C0 18 0 18 0 18C10.8 18 16.8 18 18 18C18 18 18 18 18 18C18 7.2 18 1.2 18 0C18 0 18 0 18 0C7.2 0 1.2 0 0 0Z"/><path id="a4YtBrc4C" d="M14.41 9.06L10.45 13.28L3.59 5.95L5.05 4.59L10.45 10.36L12.95 7.69L14.41 9.06Z"/></defs><g><g><g><use fill="#00bfa5" fill-opacity="0" opacity="1" xlink:href="#e5SCyvaqZI"/><g><use fill-opacity="0" stroke="#000" stroke-opacity="0" stroke-width="1" opacity="1" xlink:href="#e5SCyvaqZI"/></g></g><g><use fill="#00bfa5" fill-opacity="1" opacity="1" xlink:href="#a4YtBrc4C"/><g><use fill-opacity="0" stroke="#000" stroke-opacity="0" stroke-width="1" opacity="1" xlink:href="#a4YtBrc4C"/></g></g></g></g></svg>