<svg xmlns="http://www.w3.org/2000/svg" xmlns:xlink="http://www.w3.org/1999/xlink" width="28" height="28" version="1.1" viewBox="0 0 28 28"><title>Artboard Copy</title><desc>Created with Sketch.</desc><g id="Artboard-Copy" fill="none" fill-rule="evenodd" stroke="none" stroke-width="1"><g id="Group" transform="translate(0.000000, 1.000000)"><g id="ic_cloud_queue_24px"><polygon id="Shape" points="1.697 0 27.152 0 27.152 26 1.697 26"/><path id="Shape" fill="#1DE9B6" fill-rule="nonzero" d="M22.311731,10.4451316 C21.5425583,6.45908791 18.1152151,3.46666667 13.9978787,3.46666667 C10.7288947,3.46666667 7.8897424,5.36148166 6.47582195,8.13438165 C3.07110151,8.50410165 0.424242424,11.4503079 0.424242424,15.0204166 C0.424242424,18.8447079 3.46699923,21.9526666 7.21106058,21.9526666 L21.9158333,21.9526666 C25.0377696,21.9526666 27.5715151,19.3646266 27.5715151,16.1757916 C27.5715151,13.1256016 25.2526855,10.6530991 22.311731,10.4451316 Z"/></g><rect id="Rectangle-6" width="2" height="11" x="13" y="8" fill="#FFF" transform="translate(14.000000, 13.500000) rotate(-330.000000) translate(-14.000000, -13.500000)"/></g></g></svg>