<svg xmlns="http://www.w3.org/2000/svg" xmlns:xlink="http://www.w3.org/1999/xlink" width="200" height="58" version="1.1" viewBox="0 0 200 58"><title>digitalocean_step_3</title><desc>Created with Sketch.</desc><defs><path id="path-1" d="M10,0 C4.48,0 0,4.48 0,10 C0,15.52 4.48,20 10,20 C15.52,20 20,15.52 20,10 C20,4.48 15.52,0 10,0 Z M8,15 L3,10 L4.41,8.59 L8,12.17 L15.59,4.58 L17,6 L8,15 Z"/><path id="path-3" d="M10,0 C4.48,0 0,4.48 0,10 C0,15.52 4.48,20 10,20 C15.52,20 20,15.52 20,10 C20,4.48 15.52,0 10,0 Z M8,15 L3,10 L4.41,8.59 L8,12.17 L15.59,4.58 L17,6 L8,15 Z"/></defs><g id="digitalocean_step_3" fill="none" fill-rule="evenodd" stroke="none" stroke-width="1"><g id="Group-6-Copy-3" transform="translate(22.000000, 11.000000)"><g id="Group-5" transform="translate(0.000000, 10.000000)"><g id="Group" stroke="#1637FF" stroke-width="2"><path id="Rectangle-19" d="M1,4.99943992 L1,22.0005601 C1,24.2129565 2.7890437,26 5.0010033,26 L42.9989967,26 C45.2114013,26 47,24.2109139 47,22.0005601 L47,4.99943992 C47,2.78704348 45.2109563,1 42.9989967,1 L5.0010033,1 C2.78859871,1 1,2.78908614 1,4.99943992 Z" transform="translate(24.000000, 13.500000) rotate(-180.000000) translate(-24.000000, -13.500000)"/><path id="Path-2" stroke-linecap="square" d="M1.5,3.75 L19.8732643,13.229919 C22.4622678,14.5657483 25.5377322,14.5657483 28.1267357,13.229919 L46.5,3.75"/></g><g id="Group-2" stroke="#1637FF" stroke-width="2" transform="translate(99.000000, 0.000000)"><path id="Rectangle-19" fill="#FFF" d="M1,4.99943992 L1,22.0005601 C1,24.2129565 2.7890437,26 5.0010033,26 L42.9989967,26 C45.2114013,26 47,24.2109139 47,22.0005601 L47,4.99943992 C47,2.78704348 45.2109563,1 42.9989967,1 L5.0010033,1 C2.78859871,1 1,2.78908614 1,4.99943992 Z" transform="translate(24.000000, 13.500000) rotate(-180.000000) translate(-24.000000, -13.500000)"/><path id="Line-4" stroke-linecap="square" d="M1.10227273,8.25 L46.9031465,8.25"/></g><path id="Line-5-Copy-2" stroke="#263238" stroke-linecap="square" stroke-opacity=".12" d="M61.5,14.5 L85.5208243,14.5"/></g><g id="Group-5" transform="translate(37.000000, 0.000000)"><g id="Group-6-Copy"><path id="Path" fill="#FFF" stroke="#FFF" stroke-linecap="square" stroke-width="2" d="M10,-1 C16.0722847,-1 21,3.92771525 21,10 C21,16.0722847 16.0722847,21 10,21 C3.92771525,21 -1,16.0722847 -1,10 C-1,3.92771525 3.92771525,-1 10,-1 Z"/><mask id="mask-2" fill="#fff"><use xlink:href="#path-1"/></mask><use id="Shape" fill="#1637FF" fill-rule="nonzero" xlink:href="#path-1"/></g><g id="Group-6-Copy-2" transform="translate(99.000000, 0.000000)"><path id="Path" fill="#FFF" stroke="#FFF" stroke-linecap="square" stroke-width="2" d="M10,-1 C16.0722847,-1 21,3.92771525 21,10 C21,16.0722847 16.0722847,21 10,21 C3.92771525,21 -1,16.0722847 -1,10 C-1,3.92771525 3.92771525,-1 10,-1 Z"/><mask id="mask-4" fill="#fff"><use xlink:href="#path-3"/></mask><use id="Shape" fill="#1637FF" fill-rule="nonzero" xlink:href="#path-3"/></g></g></g></g></svg>