<svg xmlns="http://www.w3.org/2000/svg" xmlns:xlink="http://www.w3.org/1999/xlink" width="200" height="58" version="1.1" viewBox="0 0 200 58"><title>digitalocean_step_1</title><desc>Created with Sketch.</desc><g id="digitalocean_step_1" fill="none" fill-rule="evenodd" stroke="none" stroke-width="1"><g id="Group" stroke="#1637FF" stroke-width="2" transform="translate(22.000000, 21.000000)"><path id="Rectangle-19" d="M1,4.99943992 L1,22.0005601 C1,24.2129565 2.7890437,26 5.0010033,26 L42.9989967,26 C45.2114013,26 47,24.2109139 47,22.0005601 L47,4.99943992 C47,2.78704348 45.2109563,1 42.9989967,1 L5.0010033,1 C2.78859871,1 1,2.78908614 1,4.99943992 Z" transform="translate(24.000000, 13.500000) rotate(-180.000000) translate(-24.000000, -13.500000)"/><path id="Path-2" stroke-linecap="square" d="M1.5,3.75 L19.8732643,13.229919 C22.4622678,14.5657483 25.5377322,14.5657483 28.1267357,13.229919 L46.5,3.75"/></g><g id="Group-2" stroke="#1637FF" stroke-width="2" opacity=".24" transform="translate(121.000000, 21.000000)"><path id="Rectangle-19" d="M1,4.99943992 L1,22.0005601 C1,24.2129565 2.7890437,26 5.0010033,26 L42.9989967,26 C45.2114013,26 47,24.2109139 47,22.0005601 L47,4.99943992 C47,2.78704348 45.2109563,1 42.9989967,1 L5.0010033,1 C2.78859871,1 1,2.78908614 1,4.99943992 Z" transform="translate(24.000000, 13.500000) rotate(-180.000000) translate(-24.000000, -13.500000)"/><path id="Line-4" stroke-linecap="square" d="M1.10227273,8.25 L46.9031465,8.25"/></g><path id="Line-5-Copy-2" stroke="#263238" stroke-linecap="square" stroke-opacity=".12" d="M83.5,35.5 L107.520824,35.5"/></g></svg>