<svg xmlns="http://www.w3.org/2000/svg" xmlns:xlink="http://www.w3.org/1999/xlink" width="20" height="20" version="1.1" viewBox="0 0 22 22"><title>DigitalOcean icon</title><g id="Spec" fill="none" fill-rule="evenodd" stroke="none" stroke-width="1"><g id="Outline-Manager-Spec" fill="#FFF" transform="translate(-778.000000, -5414.000000)"><g id="DO-Copy-5" transform="translate(777.000000, 5413.000000)"><rect id="Rectangle-2" width="24" height="24" x="0" y="0" fill-opacity="0"/><path id="Fill-1" d="M11.9651332,22.2246918 L11.9651332,18.2498734 C16.1723971,18.2498734 19.4382567,14.0774763 17.8227603,9.64938918 C17.2300242,8.01064826 15.916707,6.69733106 14.2779661,6.10459499 C9.84987893,4.50072089 5.67748184,7.75495818 5.67748184,11.9622221 L1.71428571,11.9622221 C1.71428571,5.25616884 8.19951574,0.0261446238 15.2309927,2.22275479 C18.2992736,3.1874037 20.7515738,5.62808167 21.7046005,8.69636254 C23.9012107,15.7394618 18.6828087,22.2246918 11.9651332,22.2246918"/><polygon id="Fill-4" points="7.714 18 12 18 12 13.714 7.714 13.714"/><polygon id="Fill-5" points="5.143 20.571 7.714 20.571 7.714 18 5.143 18"/><polygon id="Fill-6" points="2.571 18 5.143 18 5.143 15.429 2.571 15.429"/></g></g></g></svg>