<svg xmlns="http://www.w3.org/2000/svg" xmlns:xlink="http://www.w3.org/1999/xlink" width="42" height="42" version="1.1" viewBox="0 0 42 42"><title>Group 6 Copy 6</title><desc>Created with Sketch.</desc><g id="Symbols" fill="none" fill-rule="evenodd" stroke="none" stroke-width="1"><g id="kays" fill="#FFF" transform="translate(-30.000000, -164.000000)"><g id="Group-6-Copy-6" transform="translate(30.000000, 164.000000)"><circle id="gradient" cx="21" cy="21" r="21" fill-opacity=".08" transform="translate(21.000000, 21.000000) rotate(-270.000000) translate(-21.000000, -21.000000)"/><path id="Shape" fill-rule="nonzero" d="M22.1795455,19.3333333 C21.3222727,16.8091667 19.0013636,15 16.2727273,15 C12.8122727,15 10,17.9141667 10,21.5 C10,25.0858333 12.8122727,28 16.2727273,28 C19.0013636,28 21.3222727,26.1908333 22.1795455,23.6666667 L26.7272727,23.6666667 L26.7272727,28 L30.9090909,28 L30.9090909,23.6666667 L33,23.6666667 L33,19.3333333 L22.1795455,19.3333333 Z M16.2727273,23.6666667 C15.1227273,23.6666667 14.1818182,22.6916667 14.1818182,21.5 C14.1818182,20.3083333 15.1227273,19.3333333 16.2727273,19.3333333 C17.4227273,19.3333333 18.3636364,20.3083333 18.3636364,21.5 C18.3636364,22.6916667 17.4227273,23.6666667 16.2727273,23.6666667 Z"/></g></g></g></svg>