<?xml version="1.0" encoding="UTF-8"?>
<svg width="22px" height="20px" viewBox="0 0 22 20" version="1.1" xmlns="http://www.w3.org/2000/svg" xmlns:xlink="http://www.w3.org/1999/xlink">
    <!-- Generator: Sketch 47.1 (45422) - http://www.bohemiancoding.com/sketch -->
    <title>key-empty</title>
    <desc>Created with Sketch.</desc>
    <defs></defs>
    <g id="Page-1" stroke="none" stroke-width="1" fill="none" fill-rule="evenodd" opacity="0.34">
        <g id="key-001" transform="translate(-289.000000, -523.000000)" fill="#000000">
            <g id="key-empty" transform="translate(289.000000, 523.000000)">
                <g id="Group-7">
                    <g id="key-avater" transform="translate(0.000000, 8.000000)" fill-rule="nonzero">
                        <path d="M11.65,4 C10.83,1.67 8.61,0 6,0 C2.69,0 0,2.69 0,6 C0,9.31 2.69,12 6,12 C8.61,12 10.83,10.33 11.65,8 L16,8 L16,12 L20,12 L20,8 L22,8 L22,4 L11.65,4 Z M6,8 C4.9,8 4,7.1 4,6 C4,4.9 4.9,4 6,4 C7.1,4 8,4.9 8,6 C8,7.1 7.1,8 6,8 Z" id="Shape"></path>
                    </g>
                    <path d="M18,5 L14,5 L14,3 L18,3 L22,3 L22,5 L18,5 Z M17,5 L19,5 L19,8 L17,8 L17,5 Z M17,0 L19,0 L19,3 L17,3 L17,0 Z" id="Combined-Shape"></path>
                </g>
            </g>
        </g>
    </g>
</svg>