<?xml version="1.0" encoding="UTF-8"?>
<svg width="40px" height="40px" viewBox="0 0 40 40" version="1.1" xmlns="http://www.w3.org/2000/svg" xmlns:xlink="http://www.w3.org/1999/xlink">
    <!-- Generator: Sketch 47.1 (45422) - http://www.bohemiancoding.com/sketch -->
    <title>key-avater</title>
    <desc>Created with Sketch.</desc>
    <defs></defs>
    <g id="Page-1" stroke="none" stroke-width="1" fill="none" fill-rule="evenodd">
        <g id="key-004" transform="translate(-29.000000, -370.000000)">
            <g id="key-avater" transform="translate(29.000000, 370.000000)">
                <g>
                    <circle id="gradient" fill="#263238" transform="translate(20.000000, 20.000000) rotate(-270.000000) translate(-20.000000, -20.000000) " cx="20" cy="20" r="20"></circle>
                    <path d="M20.65,18 C19.83,15.67 17.61,14 15,14 C11.69,14 9,16.69 9,20 C9,23.31 11.69,26 15,26 C17.61,26 19.83,24.33 20.65,22 L25,22 L25,26 L29,26 L29,22 L31,22 L31,18 L20.65,18 Z M15,22 C13.9,22 13,21.1 13,20 C13,18.9 13.9,18 15,18 C16.1,18 17,18.9 17,20 C17,21.1 16.1,22 15,22 Z" id="Shape" fill="#FFFFFF" fill-rule="nonzero"></path>
                </g>
            </g>
        </g>
    </g>
</svg>