<svg xmlns="http://www.w3.org/2000/svg" xmlns:xlink="http://www.w3.org/1999/xlink" width="42" height="49" version="1.1" viewBox="0 0 42 49"><title>manager-key-avatar copy</title><desc>Created with Sketch.</desc><g id="Symbols" fill="none" fill-rule="evenodd" stroke="none" stroke-width="1"><g id="kays" transform="translate(-30.000000, -85.000000)"><g id="manager-key-avatar-copy" transform="translate(28.000000, 85.000000)"><rect id="Rectangle-4" width="46" height="46" x="0" y="1" opacity="0"/><polygon id="Fill-1" fill="#FFF" fill-opacity=".08" points="23 0 2 12.158 2 36.474 22.999 48.632 23.002 48.632 44 36.474 44 12.158"/><path id="Shape" fill="#FFF" fill-rule="nonzero" d="M23.65,22 C22.83,19.67 20.61,18 18,18 C14.69,18 12,20.69 12,24 C12,27.31 14.69,30 18,30 C20.61,30 22.83,28.33 23.65,26 L28,26 L28,30 L32,30 L32,26 L34,26 L34,22 L23.65,22 Z M18,26 C16.9,26 16,25.1 16,24 C16,22.9 16.9,22 18,22 C19.1,22 20,22.9 20,24 C20,25.1 19.1,26 18,26 Z"/></g></g></g></svg>