<?xml version="1.0" encoding="UTF-8"?>
<svg width="42px" height="49px" viewBox="0 0 42 49" version="1.1" xmlns="http://www.w3.org/2000/svg" xmlns:xlink="http://www.w3.org/1999/xlink">
    <!-- Generator: Sketch 52.5 (67469) - http://www.bohemiancoding.com/sketch -->
    <title>manager-key-avatar copy</title>
    <desc>Created with Sketch.</desc>
    <g id="Symbols" stroke="none" stroke-width="1" fill="none" fill-rule="evenodd">
        <g id="kays" transform="translate(-30.000000, -85.000000)">
            <g id="manager-key-avatar-copy" transform="translate(28.000000, 85.000000)">
                <rect id="Rectangle-4" opacity="0" x="0" y="1" width="46" height="46"></rect>
                <polygon id="Fill-1" fill-opacity="0.08" fill="#FFFFFF" points="23.0003078 0 2 12.1577404 2 36.4738385 22.9990767 48.6315789 23.0015388 48.6315789 44 36.4738385 44 12.1577404"></polygon>
                <path d="M23.65,22 C22.83,19.67 20.61,18 18,18 C14.69,18 12,20.69 12,24 C12,27.31 14.69,30 18,30 C20.61,30 22.83,28.33 23.65,26 L28,26 L28,30 L32,30 L32,26 L34,26 L34,22 L23.65,22 Z M18,26 C16.9,26 16,25.1 16,24 C16,22.9 16.9,22 18,22 C19.1,22 20,22.9 20,24 C20,25.1 19.1,26 18,26 Z" id="Shape" fill="#FFFFFF" fill-rule="nonzero"></path>
            </g>
        </g>
    </g>
</svg>