<?xml version="1.0" encoding="UTF-8"?>
<svg width="38px" height="44px" viewBox="0 0 38 44" version="1.1" xmlns="http://www.w3.org/2000/svg" xmlns:xlink="http://www.w3.org/1999/xlink">
    <!-- Generator: Sketch 49.1 (51147) - http://www.bohemiancoding.com/sketch -->
    <title>manager-key-avatar</title>
    <desc>Created with Sketch.</desc>
    <defs></defs>
    <g id="Page-1" stroke="none" stroke-width="1" fill="none" fill-rule="evenodd">
        <g id="users-002" transform="translate(-29.000000, -306.000000)">
            <g id="manager-key-avatar" transform="translate(25.000000, 305.000000)">
                <rect id="Rectangle-4" opacity="0" x="0" y="0" width="46" height="46"></rect>
                <polygon id="Fill-1" fill="#263238" points="23.0002784 1 4 11.9998604 4 34.0001396 22.9991647 45 23.0013922 45 42 34.0001396 42 11.9998604"></polygon>
                <path d="M23.65,21 C22.83,18.67 20.61,17 18,17 C14.69,17 12,19.69 12,23 C12,26.31 14.69,29 18,29 C20.61,29 22.83,27.33 23.65,25 L28,25 L28,29 L32,29 L32,25 L34,25 L34,21 L23.65,21 Z M18,25 C16.9,25 16,24.1 16,23 C16,21.9 16.9,21 18,21 C19.1,21 20,21.9 20,23 C20,24.1 19.1,25 18,25 Z" id="Shape" fill="#FFFFFF" fill-rule="nonzero"></path>
            </g>
        </g>
    </g>
</svg>