<?xml version="1.0" encoding="UTF-8"?>
<svg width="45px" height="46px" viewBox="0 0 45 46" version="1.1" xmlns="http://www.w3.org/2000/svg" xmlns:xlink="http://www.w3.org/1999/xlink">
    <!-- Generator: Sketch 47.1 (45422) - http://www.bohemiancoding.com/sketch -->
    <title>manager-key-avatar</title>
    <desc>Created with Sketch.</desc>
    <defs></defs>
    <g id="Page-1" stroke="none" stroke-width="1" fill="none" fill-rule="evenodd">
        <g id="key-004" transform="translate(-26.000000, -291.000000)" fill-rule="nonzero">
            <g id="manager-key-avatar" transform="translate(26.000000, 291.000000)">
                <path d="M40.6938907,26.4192733 L44.1613887,29.1305636 C44.591115,29.4697886 44.7042008,30.0803936 44.4327948,30.5779236 L39.9093606,38.4027135 C39.6379545,38.9002435 39.0499081,39.1037785 38.5297132,38.9002435 L34.3451888,37.2198729 C32.7273169,38.5611884 30.8756223,39.6303532 28.8603119,40.3571672 L28.2162832,44.8479884 C28.1484317,45.3907484 27.6734711,45.7978184 27.1080419,45.7978184 L18.0611735,45.7978184 C17.4957442,45.7978184 17.0207836,45.3907484 16.9529321,44.8479884 L16.3043338,40.3253026 C14.311747,39.595146 12.480867,38.5297283 10.8800361,37.197385 L6.6395022,38.9002435 C6.14192444,39.0811635 5.53126083,38.9002435 5.25985478,38.4027135 L0.736420601,30.5779236 C0.465014551,30.0803936 0.578100405,29.4697886 1.00782665,29.1305636 L4.54803015,26.3624238 C4.35489387,25.2946912 4.25404652,24.1948492 4.25404652,23.0714553 C4.25404652,22.0166335 4.34295813,20.9825762 4.51369645,19.9763675 L1.00782665,17.2350737 C0.578100405,16.8958487 0.44239738,16.2852437 0.736420601,15.7877137 L5.25985478,7.96292382 C5.53126083,7.46539382 6.11930727,7.26185883 6.6395022,7.46539382 L10.7010833,9.09639432 C12.3528313,7.68586288 14.2576723,6.56297674 16.338041,5.80529399 L16.9529321,1.51764888 C17.0207836,0.974888889 17.4957442,0.567818893 18.0611735,0.567818893 L27.1080419,0.567818893 C27.6734711,0.567818893 28.1484317,0.974888889 28.2162832,1.51764888 L28.8266342,5.77363494 C30.9299631,6.52753066 32.8558188,7.65408695 34.5246036,9.07371393 L38.5297132,7.46539382 C39.0272909,7.28447383 39.6379545,7.46539382 39.9093606,7.96292382 L44.4327948,15.7877137 C44.7042008,16.2852437 44.591115,16.8958487 44.1613887,17.2350737 L40.7287858,19.919079 C40.9059301,20.9433136 40.9982503,21.9966042 40.9982503,23.0714553 C40.9982503,24.2147976 40.8937896,25.3337441 40.6938907,26.4192733 Z" id="Combined-Shape" fill="#263238"></path>
                <path d="M23.65,21 C22.83,18.67 20.61,17 18,17 C14.69,17 12,19.69 12,23 C12,26.31 14.69,29 18,29 C20.61,29 22.83,27.33 23.65,25 L28,25 L28,29 L32,29 L32,25 L34,25 L34,21 L23.65,21 Z M18,25 C16.9,25 16,24.1 16,23 C16,21.9 16.9,21 18,21 C19.1,21 20,21.9 20,23 C20,24.1 19.1,25 18,25 Z" id="Shape" fill="#FFFFFF"></path>
            </g>
        </g>
    </g>
</svg>