<svg width="24" height="24" viewBox="0 0 24 24" fill="none" xmlns="http://www.w3.org/2000/svg">
<g clip-path="url(#clip0_62_20)">
<path d="M7.05 18.3C6.675 18.3 6.35625 18.1687 6.09375 17.9062C5.83125 17.6437 5.7 17.325 5.7 16.95V7.05C5.7 6.675 5.83125 6.35625 6.09375 6.09375C6.35625 5.83125 6.675 5.7 7.05 5.7H12V7.05H7.05V16.95H16.95V12H18.3V16.95C18.3 17.325 18.1688 17.6437 17.9063 17.9062C17.6438 18.1687 17.325 18.3 16.95 18.3H7.05ZM10.2563 14.7L9.3 13.7437L15.9938 7.05H13.8V5.7H18.3V10.2H16.95V8.00625L10.2563 14.7Z" fill="#55BCA6"/>
</g>
<defs>
<clipPath id="clip0_62_20">
<rect width="24" height="24" fill="white"/>
</clipPath>
</defs>
</svg>
