<?xml version="1.0" encoding="UTF-8"?>
<svg width="141px" height="18px" viewBox="0 0 141 18" version="1.1" xmlns="http://www.w3.org/2000/svg" xmlns:xlink="http://www.w3.org/1999/xlink">
    <!-- Generator: Sketch 49 (51002) - http://www.bohemiancoding.com/sketch -->
    <title>Group</title>
    <desc>Created with Sketch.</desc>
    <defs></defs>
    <g id="Symbols" stroke="none" stroke-width="1" fill="none" fill-rule="evenodd">
        <g id="Toolbar" transform="translate(-230.000000, -24.000000)">
            <g id="Group" transform="translate(228.000000, 20.000000)">
                <rect id="Rectangle" x="0" y="0" width="146" height="24"></rect>
                <path d="M8.678,17.464 C7.42999376,17.464 6.2960051,17.167003 5.276,16.573 C4.2559949,15.978997 3.45500291,15.1660052 2.873,14.134 C2.29099709,13.1019948 2,11.9680062 2,10.732 C2,9.49599382 2.29099709,8.36500513 2.873,7.339 C3.45500291,6.31299487 4.2559949,5.500003 5.276,4.9 C6.2960051,4.299997 7.42999376,4 8.678,4 C9.92600624,4 11.0569949,4.299997 12.071,4.9 C13.0850051,5.500003 13.8859971,6.31299487 14.474,7.339 C15.0620029,8.36500513 15.356,9.49599382 15.356,10.732 C15.356,11.9680062 15.0650029,13.1019948 14.483,14.134 C13.9009971,15.1660052 13.1000051,15.978997 12.08,16.573 C11.0599949,17.167003 9.92600624,17.464 8.678,17.464 Z M8.678,15.538 C9.53000426,15.538 10.3099965,15.334002 11.018,14.926 C11.7260035,14.517998 12.283998,13.9510036 12.692,13.225 C13.100002,12.4989964 13.304,11.6680047 13.304,10.732 C13.304,9.79599532 13.100002,8.96500363 12.692,8.239 C12.283998,7.51299637 11.7260035,6.94600204 11.018,6.538 C10.3099965,6.12999796 9.53000426,5.926 8.678,5.926 C7.82599574,5.926 7.04600354,6.12999796 6.338,6.538 C5.62999646,6.94600204 5.06900207,7.51299637 4.655,8.239 C4.24099793,8.96500363 4.034,9.79599532 4.034,10.732 C4.034,11.6680047 4.24099793,12.4989964 4.655,13.225 C5.06900207,13.9510036 5.62999646,14.517998 6.338,14.926 C7.04600354,15.334002 7.82599574,15.538 8.678,15.538 Z M20.684,17.464 C19.5679944,17.464 18.7190029,17.1310033 18.137,16.465 C17.5549971,15.7989967 17.264,14.8720059 17.264,13.684 L17.264,7.996 L19.244,7.996 L19.244,13.414 C19.244,14.1580037 19.4209982,14.7159981 19.775,15.088 C20.1290018,15.4600019 20.5939971,15.646 21.17,15.646 C21.6380023,15.646 22.0519982,15.5230012 22.412,15.277 C22.7720018,15.0309988 23.047999,14.704002 23.24,14.296 C23.432001,13.887998 23.528,13.4500023 23.528,12.982 L23.528,7.996 L25.508,7.996 L25.508,17.176 L23.636,17.176 L23.636,15.988 L23.528,15.988 C23.2759987,16.4200022 22.8860026,16.7739986 22.358,17.05 C21.8299974,17.3260014 21.2720029,17.464 20.684,17.464 Z M31.574,17.32 C31.165998,17.32 30.7820018,17.2540007 30.422,17.122 C30.0619982,16.9899993 29.7680011,16.8160011 29.54,16.6 C29.0239974,16.0839974 28.766,15.3820044 28.766,14.494 L28.766,9.742 L27.164,9.742 L27.164,7.996 L28.766,7.996 L28.766,5.404 L30.746,5.404 L30.746,7.996 L32.978,7.996 L32.978,9.742 L30.746,9.742 L30.746,14.062 C30.746,14.5540025 30.841999,14.901999 31.034,15.106 C31.2140009,15.3460012 31.5259978,15.466 31.97,15.466 C32.174001,15.466 32.3539992,15.4390003 32.51,15.385 C32.6660008,15.3309997 32.8339991,15.2440006 33.014,15.124 L33.014,17.05 C32.617998,17.2300009 32.1380028,17.32 31.574,17.32 Z M34.868,4.288 L36.848,4.288 L36.848,17.176 L34.868,17.176 L34.868,4.288 Z M40.304,6.664 C39.9319981,6.664 39.6170013,6.53500129 39.359,6.277 C39.1009987,6.01899871 38.972,5.70400186 38.972,5.332 C38.972,4.95999814 39.1009987,4.64500129 39.359,4.387 C39.6170013,4.12899871 39.9319981,4 40.304,4 C40.6760019,4 40.9909987,4.12899871 41.249,4.387 C41.5070013,4.64500129 41.636,4.95999814 41.636,5.332 C41.636,5.70400186 41.5070013,6.01899871 41.249,6.277 C40.9909987,6.53500129 40.6760019,6.664 40.304,6.664 Z M39.314,7.996 L41.294,7.996 L41.294,17.176 L39.314,17.176 L39.314,7.996 Z M43.76,7.996 L45.65,7.996 L45.65,9.202 L45.74,9.202 C46.0040013,8.76999784 46.3969974,8.41300141 46.919,8.131 C47.4410026,7.84899859 47.9959971,7.708 48.584,7.708 C49.7000056,7.708 50.5489971,8.03499673 51.131,8.689 C51.7130029,9.34300327 52.004,10.2339944 52.004,11.362 L52.004,17.176 L50.024,17.176 L50.024,11.632 C50.024,10.9119964 49.8470018,10.3840017 49.493,10.048 C49.1389982,9.71199832 48.6500031,9.544 48.026,9.544 C47.5819978,9.544 47.1860017,9.66699877 46.838,9.913 C46.4899983,10.1590012 46.220001,10.485998 46.028,10.894 C45.835999,11.302002 45.74,11.7399977 45.74,12.208 L45.74,17.176 L43.76,17.176 L43.76,7.996 Z M58.43,17.464 C57.5299955,17.464 56.7230036,17.2540021 56.009,16.834 C55.2949964,16.4139979 54.737002,15.8350037 54.335,15.097 C53.932998,14.3589963 53.732,13.5280046 53.732,12.604 C53.732,11.7279956 53.9269981,10.9150037 54.317,10.165 C54.707002,9.41499625 55.2499965,8.81800222 55.946,8.374 C56.6420035,7.92999778 57.4339956,7.708 58.322,7.708 C59.2460046,7.708 60.0469966,7.91199796 60.725,8.32 C61.4030034,8.72800204 61.9189982,9.28599646 62.273,9.994 C62.6270018,10.7020035 62.804,11.4999956 62.804,12.388 C62.804,12.5560008 62.7860002,12.7659987 62.75,13.018 L55.712,13.018 C55.7840004,13.8700043 56.0869973,14.5269977 56.621,14.989 C57.1550027,15.4510023 57.7759965,15.682 58.484,15.682 C59.0480028,15.682 59.5369979,15.5530013 59.951,15.295 C60.3650021,15.0369987 60.6979987,14.6860022 60.95,14.242 L62.624,15.034 C62.1919978,15.7900038 61.6280035,16.3839978 60.932,16.816 C60.2359965,17.2480022 59.4020049,17.464 58.43,17.464 Z M60.788,11.506 C60.7639999,11.1819984 60.6620009,10.8610016 60.482,10.543 C60.3019991,10.2249984 60.0290018,9.95800108 59.663,9.742 C59.2969982,9.52599892 58.8500026,9.418 58.322,9.418 C57.6859968,9.418 57.1490022,9.60699811 56.711,9.985 C56.2729978,10.3630019 55.9700008,10.8699968 55.802,11.506 L60.788,11.506 Z M69.14,4.288 L71.876,4.288 L75.584,14.062 L75.692,14.062 L79.4,4.288 L82.136,4.288 L82.136,17.176 L80.138,17.176 L80.138,9.958 L80.246,7.636 L80.138,7.636 L76.448,17.176 L74.828,17.176 L71.138,7.636 L71.03,7.636 L71.138,9.958 L71.138,17.176 L69.14,17.176 L69.14,4.288 Z M87.644,17.464 C86.9839967,17.464 86.3960026,17.3350013 85.88,17.077 C85.3639974,16.8189987 84.9620014,16.4530024 84.674,15.979 C84.3859986,15.5049976 84.242,14.968003 84.242,14.368 C84.242,13.4199953 84.5989964,12.6700028 85.313,12.118 C86.0270036,11.5659972 86.9299945,11.29 88.022,11.29 C88.5620027,11.29 89.0479978,11.3409995 89.48,11.443 C89.9120022,11.5450005 90.2539987,11.6559994 90.506,11.776 L90.506,11.308 C90.506,10.7439972 90.2960021,10.2850018 89.876,9.931 C89.4559979,9.57699823 88.9160033,9.4 88.256,9.4 C87.7879977,9.4 87.3470021,9.50199898 86.933,9.706 C86.5189979,9.91000102 86.1860013,10.1919982 85.934,10.552 L84.548,9.49 C84.956002,8.92599718 85.4839968,8.48800156 86.132,8.176 C86.7800032,7.86399844 87.499996,7.708 88.292,7.708 C89.6240067,7.708 90.6499964,8.03499673 91.37,8.689 C92.0900036,9.34300327 92.45,10.2639941 92.45,11.452 L92.45,17.176 L90.506,17.176 L90.506,16.078 L90.416,16.078 C90.1519987,16.474002 89.7800024,16.8039987 89.3,17.068 C88.8199976,17.3320013 88.2680031,17.464 87.644,17.464 Z M87.986,15.826 C88.4660024,15.826 88.8979981,15.7120011 89.282,15.484 C89.6660019,15.2559989 89.9659989,14.9500019 90.182,14.566 C90.3980011,14.1819981 90.506,13.7680022 90.506,13.324 C90.2299986,13.1679992 89.9090018,13.0420005 89.543,12.946 C89.1769982,12.8499995 88.796002,12.802 88.4,12.802 C87.6559963,12.802 87.1100017,12.9489985 86.762,13.243 C86.4139983,13.5370015 86.24,13.9179977 86.24,14.386 C86.24,14.8060021 86.4019984,15.1509987 86.726,15.421 C87.0500016,15.6910014 87.4699974,15.826 87.986,15.826 Z M94.61,7.996 L96.5,7.996 L96.5,9.202 L96.59,9.202 C96.8540013,8.76999784 97.2469974,8.41300141 97.769,8.131 C98.2910026,7.84899859 98.8459971,7.708 99.434,7.708 C100.550006,7.708 101.398997,8.03499673 101.981,8.689 C102.563003,9.34300327 102.854,10.2339944 102.854,11.362 L102.854,17.176 L100.874,17.176 L100.874,11.632 C100.874,10.9119964 100.697002,10.3840017 100.343,10.048 C99.9889982,9.71199832 99.5000031,9.544 98.876,9.544 C98.4319978,9.544 98.0360017,9.66699877 97.688,9.913 C97.3399983,10.1590012 97.070001,10.485998 96.878,10.894 C96.685999,11.302002 96.59,11.7399977 96.59,12.208 L96.59,17.176 L94.61,17.176 L94.61,7.996 Z M107.966,17.464 C107.305997,17.464 106.718003,17.3350013 106.202,17.077 C105.685997,16.8189987 105.284001,16.4530024 104.996,15.979 C104.707999,15.5049976 104.564,14.968003 104.564,14.368 C104.564,13.4199953 104.920996,12.6700028 105.635,12.118 C106.349004,11.5659972 107.251995,11.29 108.344,11.29 C108.884003,11.29 109.369998,11.3409995 109.802,11.443 C110.234002,11.5450005 110.575999,11.6559994 110.828,11.776 L110.828,11.308 C110.828,10.7439972 110.618002,10.2850018 110.198,9.931 C109.777998,9.57699823 109.238003,9.4 108.578,9.4 C108.109998,9.4 107.669002,9.50199898 107.255,9.706 C106.840998,9.91000102 106.508001,10.1919982 106.256,10.552 L104.87,9.49 C105.278002,8.92599718 105.805997,8.48800156 106.454,8.176 C107.102003,7.86399844 107.821996,7.708 108.614,7.708 C109.946007,7.708 110.971996,8.03499673 111.692,8.689 C112.412004,9.34300327 112.772,10.2639941 112.772,11.452 L112.772,17.176 L110.828,17.176 L110.828,16.078 L110.738,16.078 C110.473999,16.474002 110.102002,16.8039987 109.622,17.068 C109.141998,17.3320013 108.590003,17.464 107.966,17.464 Z M108.308,15.826 C108.788002,15.826 109.219998,15.7120011 109.604,15.484 C109.988002,15.2559989 110.287999,14.9500019 110.504,14.566 C110.720001,14.1819981 110.828,13.7680022 110.828,13.324 C110.551999,13.1679992 110.231002,13.0420005 109.865,12.946 C109.498998,12.8499995 109.118002,12.802 108.722,12.802 C107.977996,12.802 107.432002,12.9489985 107.084,13.243 C106.735998,13.5370015 106.562,13.9179977 106.562,14.386 C106.562,14.8060021 106.723998,15.1509987 107.048,15.421 C107.372002,15.6910014 107.791997,15.826 108.308,15.826 Z M119.072,21.352 C117.943994,21.352 117.011004,21.0940026 116.273,20.578 C115.534996,20.0619974 115.040001,19.4500035 114.788,18.742 L116.642,17.968 C116.834001,18.4480024 117.142998,18.8349985 117.569,19.129 C117.995002,19.4230015 118.495997,19.57 119.072,19.57 C119.912004,19.57 120.568998,19.3210025 121.043,18.823 C121.517002,18.3249975 121.754,17.6260045 121.754,16.726 L121.754,15.88 L121.646,15.88 C121.345999,16.3120022 120.947002,16.6509988 120.449,16.897 C119.950998,17.1430012 119.378003,17.266 118.73,17.266 C117.961996,17.266 117.248003,17.068002 116.588,16.672 C115.927997,16.275998 115.403002,15.7150036 115.013,14.989 C114.622998,14.2629964 114.428,13.4320047 114.428,12.496 C114.428,11.5599953 114.622998,10.7290036 115.013,10.003 C115.403002,9.27699637 115.927997,8.71300201 116.588,8.311 C117.248003,7.90899799 117.961996,7.708 118.73,7.708 C119.366003,7.708 119.935997,7.83399874 120.44,8.086 C120.944003,8.33800126 121.345999,8.67999784 121.646,9.112 L121.754,9.112 L121.754,7.996 L123.644,7.996 L123.644,16.672 C123.644,17.668005 123.452002,18.5169965 123.068,19.219 C122.683998,19.9210035 122.147003,20.4519982 121.457,20.812 C120.766997,21.1720018 119.972005,21.352 119.072,21.352 Z M119.09,15.466 C119.570002,15.466 120.013998,15.3490012 120.422,15.115 C120.830002,14.8809988 121.153999,14.5390023 121.394,14.089 C121.634001,13.6389978 121.754,13.1080031 121.754,12.496 C121.754,11.5599953 121.499003,10.8310026 120.989,10.309 C120.478997,9.78699739 119.846004,9.526 119.09,9.526 C118.597998,9.526 118.148002,9.64299883 117.74,9.877 C117.331998,10.1110012 117.008001,10.4499978 116.768,10.894 C116.527999,11.3380022 116.408,11.8719969 116.408,12.496 C116.408,13.1200031 116.527999,13.6539978 116.768,14.098 C117.008001,14.5420022 117.331998,14.8809988 117.74,15.115 C118.148002,15.3490012 118.597998,15.466 119.09,15.466 Z M130.16,17.464 C129.259996,17.464 128.453004,17.2540021 127.739,16.834 C127.024996,16.4139979 126.467002,15.8350037 126.065,15.097 C125.662998,14.3589963 125.462,13.5280046 125.462,12.604 C125.462,11.7279956 125.656998,10.9150037 126.047,10.165 C126.437002,9.41499625 126.979997,8.81800222 127.676,8.374 C128.372003,7.92999778 129.163996,7.708 130.052,7.708 C130.976005,7.708 131.776997,7.91199796 132.455,8.32 C133.133003,8.72800204 133.648998,9.28599646 134.003,9.994 C134.357002,10.7020035 134.534,11.4999956 134.534,12.388 C134.534,12.5560008 134.516,12.7659987 134.48,13.018 L127.442,13.018 C127.514,13.8700043 127.816997,14.5269977 128.351,14.989 C128.885003,15.4510023 129.505996,15.682 130.214,15.682 C130.778003,15.682 131.266998,15.5530013 131.681,15.295 C132.095002,15.0369987 132.427999,14.6860022 132.68,14.242 L134.354,15.034 C133.921998,15.7900038 133.358003,16.3839978 132.662,16.816 C131.965997,17.2480022 131.132005,17.464 130.16,17.464 Z M132.518,11.506 C132.494,11.1819984 132.392001,10.8610016 132.212,10.543 C132.031999,10.2249984 131.759002,9.95800108 131.393,9.742 C131.026998,9.52599892 130.580003,9.418 130.052,9.418 C129.415997,9.418 128.879002,9.60699811 128.441,9.985 C128.002998,10.3630019 127.700001,10.8699968 127.532,11.506 L132.518,11.506 Z M136.334,7.996 L138.224,7.996 L138.224,9.346 L138.314,9.346 C138.518001,8.87799766 138.871997,8.49100153 139.376,8.185 C139.880003,7.87899847 140.413997,7.726 140.978,7.726 C141.422002,7.726 141.793999,7.7859994 142.094,7.906 L142.094,9.958 C141.565997,9.76599904 141.092002,9.67 140.672,9.67 C140.215998,9.67 139.811002,9.7899988 139.457,10.03 C139.102998,10.2700012 138.824001,10.590998 138.62,10.993 C138.415999,11.395002 138.314,11.8359976 138.314,12.316 L138.314,17.176 L136.334,17.176 L136.334,7.996 Z" id="Outline-Manager" fill-opacity="0.86" fill="#FFFFFF"></path>
            </g>
        </g>
    </g>
</svg>