<?xml version="1.0" encoding="UTF-8"?>
<svg width="69px" height="61px" viewBox="0 0 69 61" version="1.1" xmlns="http://www.w3.org/2000/svg" xmlns:xlink="http://www.w3.org/1999/xlink">
    <!-- Generator: Sketch 45.2 (43514) - http://www.bohemiancoding.com/sketch -->
    <title>Group 52</title>
    <desc>Created with Sketch.</desc>
    <defs>
        <rect id="path-1" x="3.55271368e-14" y="0" width="48.2920219" height="52.6002029"></rect>
        <polygon id="path-2" points="0 -3.41060513e-13 44.9825894 -3.41060513e-13 44.9825894 24.2770167 0 24.2770167"></polygon>
        <polygon id="path-3" points="0 0 22.8172555 17.0595253 44.9825894 0 44.9825894 24.2770167 0 24.2770167"></polygon>
        <polygon id="path-4" points="22.8172555 3.55271368e-15 44.9825894 18.6123795 0 18.6123795"></polygon>
    </defs>
    <g id="Page-1" stroke="none" stroke-width="1" fill="none" fill-rule="evenodd">
        <g id="Manager-stickersheet" transform="translate(-555.000000, -6872.000000)">
            <g id="Group-52" transform="translate(555.000000, 6873.000000)">
                <g id="Group-16" transform="translate(6.000000, 0.000000)">
                    <g id="Group-15" transform="translate(13.655429, 0.000000)">
                        <g id="Rectangle">
                            <use fill="#455A64" fill-rule="evenodd" xlink:href="#path-1"></use>
                            <rect stroke="#66818D" stroke-width="1" x="-0.5" y="-0.5" width="49.2920219" height="53.6002029"></rect>
                        </g>
                        <path d="M23.2048908,13.4046169 L23.2048908,15.8323186" id="Line-2" stroke="#66818D" stroke-linecap="square"></path>
                        <path d="M5.01588704,5.5 L38.3964737,5.5" id="Line-2-Copy-3" stroke="#66818D" stroke-linecap="square"></path>
                        <path d="M5.01588704,10.5 L38.3964737,10.5" id="Line-2-Copy-4" stroke="#66818D" stroke-linecap="square"></path>
                        <path d="M5.02443985,15.5 L19.0307207,15.5" id="Line-2-Copy-5" stroke="#66818D" stroke-linecap="square"></path>
                    </g>
                    <g id="Group-34" transform="translate(0.000000, 34.797057)">
                        <g id="Rectangle-19" transform="translate(22.491295, 12.138508) rotate(-180.000000) translate(-22.491295, -12.138508) ">
                            <use fill="#455A64" fill-rule="evenodd" xlink:href="#path-2"></use>
                            <path stroke="#F0F2F4" stroke-width="1" d="M0.5,0.5 L0.5,23.7770167 L44.4825894,23.7770167 L44.4825894,0.5 L0.5,0.5 Z"></path>
                        </g>
                        <g id="Rectangle-19" transform="translate(22.491295, 12.138508) rotate(-180.000000) translate(-22.491295, -12.138508) ">
                            <use fill="#455A64" fill-rule="evenodd" xlink:href="#path-3"></use>
                            <path stroke="#F0F2F4" stroke-width="1" d="M0.5,0.998127862 L0.5,23.7770167 L44.4825894,23.7770167 L44.4825894,1.01576809 L22.8216351,17.6870981 L0.5,0.998127862 Z"></path>
                        </g>
                        <g id="Rectangle-19" transform="translate(22.491295, 9.306190) rotate(-180.000000) translate(-22.491295, -9.306190) ">
                            <use fill="#455A64" fill-rule="evenodd" xlink:href="#path-4"></use>
                            <path stroke="#F0F2F4" stroke-width="1" d="M22.8126352,0.649019055 L1.40398307,18.1123795 L43.6096115,18.1123795 L22.8126352,0.649019055 Z"></path>
                        </g>
                    </g>
                </g>
                <circle id="Oval-6" fill="#1DE9B6" cx="6" cy="35" r="6"></circle>
                <polyline id="Path-10" stroke="#455A64" stroke-linecap="square" points="3 35 5 37 9 33"></polyline>
            </g>
        </g>
    </g>
</svg>