<?xml version="1.0" encoding="UTF-8"?>
<svg width="75px" height="62px" viewBox="0 0 75 62" version="1.1" xmlns="http://www.w3.org/2000/svg" xmlns:xlink="http://www.w3.org/1999/xlink">
    <!-- Generator: Sketch 45.2 (43514) - http://www.bohemiancoding.com/sketch -->
    <title>Group 51</title>
    <desc>Created with Sketch.</desc>
    <defs>
        <path d="M13.9802498,-7.47991079e-16 L39.917549,-7.47991079e-16 L39.917549,0 C45.4403965,-1.01448797e-15 49.917549,4.4771525 49.917549,10 L49.917549,12.6818906 L49.917549,12.6818906 C49.917549,18.2047381 45.4403965,22.6818906 39.917549,22.6818906 L-2.84217094e-14,22.6818906 L3.98024982,18.8032639 L3.98024982,10 L3.98024982,10 C3.98024982,4.4771525 8.45740232,1.01448797e-15 13.9802498,0 Z" id="path-1"></path>
        <path d="M14.7009446,-3.33500588e-16 L48.8747911,6.61471745e-16 L48.8747911,0 C54.3976386,-1.01454218e-15 58.8747911,4.4771525 58.8747911,10 L58.8747911,16.196965 L58.8747911,16.196965 C58.8747911,21.7198125 54.3976386,26.196965 48.8747911,26.196965 L1.42108547e-13,26.196965 L4.7009446,22.2381533 L4.7009446,10 L4.7009446,10 C4.7009446,4.4771525 9.1780971,-7.61814656e-16 14.7009446,-1.77635684e-15 Z" id="path-2"></path>
    </defs>
    <g id="Page-1" stroke="none" stroke-width="1" fill="none" fill-rule="evenodd">
        <g id="Manager-stickersheet" transform="translate(-696.000000, -6872.000000)">
            <g id="Group-51" transform="translate(696.000000, 6873.000000)">
                <g id="Group-14" transform="translate(18.000000, 0.000000)">
                    <rect id="Rectangle-Copy" stroke="#66818D" x="-0.018102372" y="-0.5" width="49.3695372" height="53.7489712"></rect>
                    <g id="Group-12" transform="translate(6.918297, 4.869136)">
                        <g id="Rectangle-33">
                            <use fill="#455A64" fill-rule="evenodd" xlink:href="#path-1"></use>
                            <path stroke="#66818D" stroke-width="1" d="M1.22953045,22.1818906 L39.917549,22.1818906 C45.1642542,22.1818906 49.417549,17.9285958 49.417549,12.6818906 L49.417549,10 C49.417549,4.75329488 45.1642542,0.5 39.917549,0.5 L13.9802498,0.5 C8.7335447,0.5 4.48024982,4.75329488 4.48024982,10 L4.48024982,19.0141681 L1.22953045,22.1818906 Z"></path>
                        </g>
                        <path d="M42.2038245,6.63417368 L11.5357076,6.63417368 L42.2038245,6.63417368 Z" id="Line-2" stroke="#66818D" stroke-linecap="square"></path>
                        <path d="M42.2038245,11.1035117 L11.5357076,11.1035117 L42.2038245,11.1035117 Z" id="Line-2-Copy-6" stroke="#66818D" stroke-linecap="square"></path>
                        <path d="M32.5843635,15.5728498 L11.5357076,15.5728498 L32.5843635,15.5728498 Z" id="Line-2-Copy-7" stroke="#66818D" stroke-linecap="square"></path>
                    </g>
                </g>
                <g id="Group-18" transform="translate(0.000000, 29.000000)">
                    <g id="Group-33" transform="translate(4.000000, 5.083951)">
                        <g id="Rectangle-33" transform="translate(29.437396, 13.098483) scale(-1, 1) translate(-29.437396, -13.098483) ">
                            <use fill="#455A64" fill-rule="evenodd" xlink:href="#path-2"></use>
                            <path stroke="#F0F2F4" stroke-width="1" d="M1.36995171,25.696965 L48.8747911,25.696965 C54.1214962,25.696965 58.3747911,21.4436701 58.3747911,16.196965 L58.3747911,10 C58.3747911,4.75329488 54.1214962,0.5 48.8747911,0.5 L14.7009446,0.5 C9.45423948,0.5 5.2009446,4.75329488 5.2009446,10 L5.2009446,22.4707667 L1.36995171,25.696965 Z"></path>
                        </g>
                        <g id="Group-10" transform="translate(9.000000, 7.000000)" stroke="#F0F2F4" stroke-linecap="square">
                            <path d="M0.311320755,0.5 L32.7126181,0.5" id="Line-2"></path>
                            <path d="M0.314814815,5.5 L33.7089363,5.5" id="Line-2-Copy"></path>
                            <path d="M0.340909091,10.5 L14.3845431,10.5" id="Line-2-Copy-2"></path>
                        </g>
                    </g>
                    <circle id="Oval-6-Copy" fill="#1DE9B6" cx="6" cy="6" r="6"></circle>
                    <polyline id="Path-10-Copy" stroke="#455A64" stroke-linecap="square" points="3 6 5 8 9 4"></polyline>
                </g>
            </g>
        </g>
    </g>
</svg>