<?xml version="1.0" encoding="UTF-8"?>
<svg width="69px" height="66px" viewBox="0 0 69 66" version="1.1" xmlns="http://www.w3.org/2000/svg" xmlns:xlink="http://www.w3.org/1999/xlink">
    <!-- Generator: Sketch 45.2 (43514) - http://www.bohemiancoding.com/sketch -->
    <title>Group 54</title>
    <desc>Created with Sketch.</desc>
    <defs>
        <rect id="path-1" x="13.6554289" y="5.02777778" width="48.2920219" height="53.9722222" rx="4"></rect>
        <rect id="path-2" x="0" y="39" width="51.4086736" height="26.4444444"></rect>
        <polygon id="path-3" points="8.69565217 0 18.3043478 0 21 9 6 9"></polygon>
    </defs>
    <g id="Page-1" stroke="none" stroke-width="1" fill="none" fill-rule="evenodd">
        <g id="Manager-stickersheet" transform="translate(-418.000000, -6868.000000)">
            <g id="Group-54" transform="translate(418.000000, 6868.000000)">
                <g id="Group-53" transform="translate(6.000000, 0.000000)">
                    <g id="Group-11">
                        <g id="Rectangle">
                            <use fill="#455A64" fill-rule="evenodd" xlink:href="#path-1"></use>
                            <rect stroke="#66818D" stroke-width="1" x="13.1554289" y="4.52777778" width="49.2920219" height="54.9722222" rx="4"></rect>
                        </g>
                        <g id="Rectangle-2">
                            <use fill="#455A64" fill-rule="evenodd" xlink:href="#path-2"></use>
                            <rect stroke="#F0F2F4" stroke-width="1" x="0.5" y="39.5" width="50.4086736" height="25.4444444"></rect>
                        </g>
                        <g id="Group-21" transform="translate(24.000000, 0.000000)">
                            <path d="M0.451612903,8.5 L25.5,8.5" id="Line-5" stroke="#66818D" stroke-linecap="square"></path>
                            <g id="Rectangle-35">
                                <use fill="#455A64" fill-rule="evenodd" xlink:href="#path-3"></use>
                                <path stroke="#66818D" stroke-width="1" d="M9.06783969,0.5 L6.67170442,8.5 L20.3282956,8.5 L17.9321603,0.5 L9.06783969,0.5 Z"></path>
                            </g>
                            <circle id="Oval-2" stroke="#66818D" stroke-linecap="square" cx="13.5" cy="4.5" r="1.5"></circle>
                        </g>
                    </g>
                    <polygon id="Rectangle-4" fill="#1DE9B6" opacity="0.313066123" points="4 43 47 43 47 55 34 55 34 60 4 60"></polygon>
                    <rect id="Rectangle-36" stroke="#1DE9B6" x="7.5" y="46.5" width="37" height="1"></rect>
                    <rect id="Rectangle-36-Copy" stroke="#1DE9B6" x="7.5" y="51.5" width="37" height="1"></rect>
                    <rect id="Rectangle-36-Copy-2" stroke="#1DE9B6" x="7.5" y="56.5" width="23" height="1"></rect>
                </g>
                <circle id="Oval-6" fill="#1DE9B6" cx="6" cy="40" r="6"></circle>
                <polyline id="Path-10" stroke="#455A64" stroke-linecap="square" points="3 40 5 42 9 38"></polyline>
            </g>
        </g>
    </g>
</svg>