<?xml version="1.0" encoding="UTF-8"?>
<svg width="20px" height="18px" viewBox="0 0 20 18" version="1.1" xmlns="http://www.w3.org/2000/svg" xmlns:xlink="http://www.w3.org/1999/xlink">
    <!-- Generator: Sketch 47 (45396) - http://www.bohemiancoding.com/sketch -->
    <title>terminal</title>
    <desc>Created with Sketch.</desc>
    <defs></defs>
    <g id="Page-1" stroke="none" stroke-width="1" fill="none" fill-rule="evenodd">
        <g id="ManualMode-005b" transform="translate(-74.000000, -305.000000)">
            <g id="terminal" transform="translate(72.000000, 302.000000)">
                <g id="Group-2" transform="translate(12.000000, 12.000000) rotate(-90.000000) translate(-12.000000, -12.000000) translate(3.000000, 2.000000)"></g>
                <rect id="Rectangle-3" fill-opacity="0" fill="#FFFFFF" x="0" y="0" width="24" height="24"></rect>
                <path d="M5,2 L19,2 C20.1045695,2 21,2.8954305 21,4 L21,20 C21,21.1045695 20.1045695,22 19,22 L5,22 C3.8954305,22 3,21.1045695 3,20 L3,4 L3,4 C3,2.8954305 3.8954305,2 5,2 L5,2 Z M5,4 L5,20 L19,20 L19,4 L5,4 Z" id="Combined-Shape" fill="#141414" transform="translate(12.000000, 12.000000) rotate(-270.000000) translate(-12.000000, -12.000000) "></path>
                <rect id="Rectangle-2" fill="#000000" x="10" y="12" width="5" height="2"></rect>
                <path d="M4.03553391,11.0355339 L4.03553391,7.03553391 L6.03553391,7.03553391 L6.03553391,10.0355339 L9.03553391,10.0355339 L9.03553391,12.0355339 L4.03553391,12.0355339 L4.03553391,11.0355339 Z" id="Combined-Shape" fill="#000000" transform="translate(6.535534, 9.535534) rotate(-135.000000) translate(-6.535534, -9.535534) "></path>
            </g>
        </g>
    </g>
</svg>